<?xml version="1.0" standalone="no"?>
<!DOCTYPE svg PUBLIC "-//W3C//DTD SVG 20010904//EN"
 "http://www.w3.org/TR/2001/REC-SVG-20010904/DTD/svg10.dtd">
<svg version="1.0" xmlns="http://www.w3.org/2000/svg"
 width="278.000000pt" height="278.000000pt" viewBox="0 0 278.000000 278.000000"
 preserveAspectRatio="xMidYMid meet">
<metadata>
Created by potrace 1.14, written by Peter Selinger 2001-2017
</metadata>
<g transform="translate(0.000000,278.000000) scale(0.100000,-0.100000)"
fill="#000000" stroke="none">
<path d="M1775 2088 c-69 -15 -89 -18 -132 -22 -23 -2 -45 -6 -50 -9 -4 -3
-30 -7 -58 -11 -27 -3 -61 -8 -75 -11 -14 -2 -41 -7 -60 -9 -19 -3 -48 -8 -65
-12 -16 -3 -36 -7 -42 -7 -7 0 -13 -3 -13 -6 0 -3 -15 -7 -33 -9 -32 -2 -72
-9 -72 -12 0 -2 -37 -9 -80 -14 -26 -3 -46 1 -56 10 -20 18 -69 28 -69 14 0
-5 -7 -10 -16 -10 -8 0 -13 -4 -10 -9 11 -18 -59 -49 -144 -65 -14 -2 -25 -5
-25 -6 0 -1 -20 -4 -44 -6 -25 -3 -53 -10 -63 -15 -13 -7 -18 -6 -18 3 0 8 -3
9 -8 3 -8 -12 -23 -16 -77 -20 -22 -2 -40 -5 -40 -5 0 -2 -44 -10 -70 -14 -36
-5 -76 -26 -70 -37 4 -5 8 -20 10 -32 2 -12 6 -35 9 -52 3 -16 8 -50 10 -75 3
-25 7 -58 10 -75 6 -28 14 -76 21 -120 2 -11 6 -38 10 -60 5 -35 10 -65 21
-128 8 -47 34 -93 45 -83 2 2 29 6 59 10 30 3 73 10 95 15 22 6 41 8 44 6 2
-3 9 -1 15 4 6 5 31 12 56 15 25 3 59 9 75 12 17 3 39 7 51 8 11 2 25 6 31 9
5 3 32 -17 60 -46 28 -29 62 -60 75 -70 12 -9 48 -36 78 -58 30 -23 57 -45 58
-50 2 -5 9 -9 15 -9 7 0 28 -14 47 -30 58 -49 59 -50 65 -50 6 0 22 -12 53
-41 26 -23 76 -54 85 -51 4 1 7 -6 7 -15 0 -9 3 -14 6 -10 6 5 15 0 49 -30 7
-7 16 -13 19 -13 3 0 14 -8 24 -17 38 -37 72 -63 82 -63 6 0 10 -4 10 -10 0
-5 7 -10 15 -10 8 0 15 -7 15 -15 0 -9 6 -12 15 -9 8 4 15 1 15 -5 0 -7 7 -7
25 1 13 6 23 14 20 18 -2 3 7 14 20 24 14 10 22 22 19 27 -3 5 1 12 9 15 9 3
18 17 21 30 4 14 11 22 16 19 10 -6 36 35 31 50 -1 5 1 7 5 3 8 -8 41 32 36
45 -1 4 6 7 15 7 9 0 14 3 10 6 -3 3 7 20 23 38 17 17 30 37 30 44 0 7 5 10
10 7 6 -3 10 0 10 7 0 7 12 24 25 37 14 13 25 30 25 38 0 8 4 12 8 9 5 -3 15
7 22 22 7 15 16 35 21 44 12 23 0 78 -17 78 -8 0 -14 5 -14 12 0 6 -3 9 -6 5
-4 -3 -12 -1 -20 6 -31 28 -44 37 -44 33 0 -3 -12 6 -26 19 -14 13 -39 30 -55
37 -16 7 -29 16 -29 20 0 5 -7 8 -15 8 -8 0 -15 4 -15 8 0 5 -11 15 -25 22
-24 13 -33 34 -17 43 7 5 76 18 99 20 18 1 31 40 28 83 -4 63 -15 117 -25 129
-5 6 -11 28 -13 48 -2 20 -7 40 -10 44 -9 9 -9 24 1 21 12 -4 122 25 118 31
-7 11 122 16 234 10 19 -1 41 -6 48 -12 7 -5 15 -7 19 -4 3 4 11 3 17 -2 7 -6
25 -12 41 -15 17 -3 31 -10 33 -16 2 -5 10 -10 18 -10 7 0 39 -12 71 -27 58
-27 65 -30 93 -35 8 -2 21 -7 28 -11 6 -5 12 -6 12 -3 0 3 11 1 26 -4 14 -6
39 -12 55 -15 27 -5 30 -3 27 17 -2 15 -13 25 -33 31 -16 5 -43 13 -60 18 -16
6 -35 11 -42 13 -7 1 -16 5 -19 9 -4 4 -17 7 -29 7 -13 0 -28 7 -35 15 -7 9
-15 13 -18 10 -3 -2 -30 9 -60 26 -108 59 -249 78 -393 53 -101 -18 -128 -25
-135 -35 -3 -5 -13 -5 -23 1 -16 8 -26 28 -36 75 -2 6 -9 30 -16 55 -7 25 -13
48 -13 52 -1 3 -4 10 -8 14 -5 4 -8 15 -8 23 0 26 -31 38 -75 29z"/>
</g>
</svg>
