<?xml version="1.0" standalone="no"?>
<!DOCTYPE svg PUBLIC "-//W3C//DTD SVG 20010904//EN"
 "http://www.w3.org/TR/2001/REC-SVG-20010904/DTD/svg10.dtd">
<svg version="1.0" xmlns="http://www.w3.org/2000/svg"
 width="122.000000pt" height="122.000000pt" viewBox="0 0 122.000000 122.000000"
 preserveAspectRatio="xMidYMid meet">
<metadata>
Created by potrace 1.14, written by Peter Selinger 2001-2017
</metadata>
<g transform="translate(0.000000,122.000000) scale(0.100000,-0.100000)"
fill="#000000" stroke="none">
<path d="M337 1033 l-69 -4 -24 -52 c-14 -29 -38 -78 -55 -110 -16 -32 -33
-86 -38 -120 -5 -35 -16 -80 -25 -101 -20 -48 -20 -49 4 -34 17 11 22 10 30
-2 9 -15 -7 -33 -21 -24 -4 2 -4 -10 2 -28 5 -18 9 -35 9 -38 0 -3 5 3 11 13
6 9 15 14 21 11 6 -4 14 0 19 7 4 7 11 10 16 6 4 -4 2 -17 -5 -27 -6 -11 -9
-27 -7 -37 3 -10 0 -8 -6 5 -17 32 -31 23 -36 -22 -3 -33 -1 -37 13 -32 13 5
15 2 11 -14 -6 -24 7 -35 20 -17 6 6 18 41 27 77 9 36 20 72 23 80 4 8 7 18 7
22 1 3 4 10 8 14 4 3 5 -4 3 -17 -4 -22 -3 -22 9 -6 15 19 36 23 36 7 0 -13
73 -2 78 11 2 5 11 9 20 9 15 0 15 -2 2 -10 -22 -14 25 -13 52 1 13 7 18 7 14
1 -3 -6 -2 -13 4 -17 5 -3 10 -1 10 5 0 7 4 7 13 -1 9 -9 11 -31 5 -83 -4 -39
-7 -82 -7 -96 l-1 -25 -162 3 c-90 1 -200 3 -246 5 l-84 2 7 -45 c4 -25 16
-61 26 -80 32 -57 77 -70 285 -78 238 -9 795 -9 814 1 8 4 27 27 43 51 44 70
39 130 -28 306 -30 80 -55 160 -55 178 0 39 -32 138 -60 184 -10 18 -28 52
-39 76 -19 40 -22 42 -63 42 -24 0 -155 2 -293 4 -137 2 -281 2 -318 -1z m56
-170 c-7 -2 -21 -2 -30 0 -10 3 -4 5 12 5 17 0 24 -2 18 -5z m-69 -78 c-4 -8
-10 -15 -15 -15 -4 0 -6 7 -3 15 4 8 10 15 15 15 4 0 6 -7 3 -15z m-74 -5 c0
-5 -5 -10 -11 -10 -5 0 -7 5 -4 10 3 6 8 10 11 10 2 0 4 -4 4 -10z m30 6 c0
-3 -4 -8 -10 -11 -5 -3 -10 -1 -10 4 0 6 5 11 10 11 6 0 10 -2 10 -4z m95 -6
c-3 -5 -16 -10 -28 -9 -21 0 -21 1 -2 9 28 12 37 12 30 0z m-178 -6 c-3 -3
-12 -4 -19 -1 -8 3 -5 6 6 6 11 1 17 -2 13 -5z m286 -1 c-7 -2 -21 -2 -30 0
-10 3 -4 5 12 5 17 0 24 -2 18 -5z m70 0 c-7 -2 -19 -2 -25 0 -7 3 -2 5 12 5
14 0 19 -2 13 -5z m174 -255 c-2 -13 -4 -3 -4 22 0 25 2 35 4 23 2 -13 2 -33
0 -45z m-78 -52 c-7 -8 -98 -10 -105 -3 -4 4 19 7 51 7 32 0 56 -2 54 -4z
m-112 -38 c-3 -8 -6 -5 -6 6 -1 11 2 17 5 13 3 -3 4 -12 1 -19z m91 15 c-10
-2 -18 -9 -18 -14 0 -5 -13 -9 -30 -9 -22 0 -28 4 -24 15 4 10 19 15 48 14 22
-1 33 -3 24 -6z m53 -23 c4 0 5 -7 2 -17 -4 -10 -2 -14 5 -9 6 3 13 2 17 -4 4
-6 -26 -10 -84 -10 -72 0 -91 3 -91 14 0 11 15 14 65 13 58 -2 79 4 58 16 -5
2 -2 2 5 0 8 -1 18 -3 23 -3z m117 -33 c46 -3 45 -3 -10 -5 -43 -2 -58 2 -58
11 0 20 15 31 18 13 2 -10 18 -16 50 -19z"/>
<path d="M91 554 c0 -11 3 -14 6 -6 3 7 2 16 -1 19 -3 4 -6 -2 -5 -13z"/>
<path d="M121 553 c0 -12 -11 -29 -23 -37 -18 -13 -19 -16 -6 -16 21 0 41 34
35 58 -3 12 -5 11 -6 -5z"/>
</g>
</svg>
